<svg aria-hidden="true" xmlns="http://www.w3.org/2000/svg" viewBox="0 0 42.62323 42.62479">
  <g transform="translate(-3.9940714,-3.6876297)">
    <path d="m 25.306465,3.6876302 a 3.5,3.5 0 0 0 -1.081587,0.171049 3.5,3.5 0 0 0 -0.975651,0.4971272 3.5,3.5 0 0 0 -0.774113,0.7746298 3.5,3.5 0 0 0 -0.497128,0.975651 3.5,3.5 0 0 0 -0.171565,1.0815877 v 4.3527061 a 13.959908,13.959908 0 0 1 1.075386,-0.288355 13.959908,13.959908 0 0 1 2.424142,-0.211873 v 0 a 13.959908,13.959908 0 0 1 0.842842,0.02532 13.959908,13.959908 0 0 1 0.839742,0.07648 13.959908,13.959908 0 0 1 0.833541,0.126608 13.959908,13.959908 0 0 1 0.824756,0.17725 13.959908,13.959908 0 0 1 0.15968,0.04444 V 7.1876749 A 3.5,3.5 0 0 0 28.781189,6.7654785 3.5,3.5 0 0 0 28.704708,6.35 3.5,3.5 0 0 0 28.579134,5.946407 3.5,3.5 0 0 0 28.405501,5.5609008 3.5,3.5 0 0 0 28.18691,5.1991658 3.5,3.5 0 0 0 27.926461,4.8663696 3.5,3.5 0 0 0 27.627771,4.5676798 3.5,3.5 0 0 0 27.294975,4.3072306 3.5,3.5 0 0 0 26.93324,4.0886393 3.5,3.5 0 0 0 26.547733,3.9150065 3.5,3.5 0 0 0 26.14414,3.7894328 3.5,3.5 0 0 0 25.728662,3.7129516 3.5,3.5 0 0 0 25.306465,3.6876302 Z" style="stroke-linecap:round;stroke-linejoin:round" />
    <path style="stroke-linecap:round;stroke-linejoin:round" d="m 21.806421,38.459668 v 4.352706 c 8.2e-5,0.367296 0.05798,0.732295 0.171565,1.081587 0.113494,0.349284 0.281257,0.678532 0.497128,0.975651 0.215792,0.297229 0.477028,0.55864 0.774113,0.77463 0.297119,0.21587 0.626367,0.383633 0.975651,0.497127 0.34932,0.113411 0.714318,0.171134 1.081587,0.171049 0.36727,8.5e-5 0.732268,-0.05764 1.081588,-0.171049 0.349284,-0.113494 0.678532,-0.281257 0.975651,-0.497127 0.297268,-0.215948 0.558682,-0.477362 0.77463,-0.77463 0.21587,-0.297119 0.383633,-0.626367 0.497127,-0.975651 0.113411,-0.34932 0.171134,-0.714318 0.171049,-1.081587 v -4.352706 c -0.354824,0.110406 -0.71392,0.206602 -1.07642,0.288354 -0.800336,0.14105 -1.611471,0.211944 -2.424141,0.211874 -0.812671,7e-5 -1.623805,-0.07082 -2.424142,-0.211874 -0.362152,-0.08178 -0.720903,-0.177975 -1.075386,-0.288354 z" />
    <path style="stroke-linecap:round;stroke-linejoin:round" d="m 13.281877,32.073494 -3.045293,3.045809 c -0.2599547,0.259594 -0.4774205,0.558501 -0.6444047,0.885734 -0.166806,0.327347 -0.2810324,0.67892 -0.3384806,1.041797 -0.057507,0.362915 -0.057507,0.732626 0,1.09554 0.057448,0.362877 0.1716746,0.714451 0.3384806,1.041797 0.1669381,0.327417 0.384406,0.626501 0.6444047,0.886251 0.259669,0.259588 0.558572,0.476702 0.885734,0.643372 0.327186,0.166754 0.678581,0.280979 1.041281,0.33848 0.362745,0.05745 0.732277,0.05745 1.095023,0 0.3627,-0.0575 0.714095,-0.171726 1.04128,-0.33848 0.327163,-0.16667 0.626065,-0.383784 0.885734,-0.643372 l 3.046326,-3.046326 c -0.668823,-0.389953 -1.304055,-0.834875 -1.899109,-1.330151 -0.299172,-0.274161 -0.586251,-0.56124 -0.860413,-0.860413 -0.299172,-0.274161 -0.586251,-0.56124 -0.860412,-0.860412 -0.4953,-0.595219 -0.940222,-1.230625 -1.330151,-1.899626 z" />
    <path style="stroke-linecap:round;stroke-linejoin:round" d="m 7.4941162,21.499979 c -0.3672974,8.3e-5 -0.7322949,0.05798 -1.0815878,0.171566 -0.3492843,0.113494 -0.6785311,0.281257 -0.975651,0.497128 -0.2970451,0.215834 -0.5582787,0.477067 -0.7741129,0.774112 -0.2158708,0.29712 -0.3836332,0.626367 -0.4971273,0.975652 -0.1135863,0.349292 -0.1714836,0.71429 -0.1715658,1.081587 8.22e-5,0.367298 0.05798,0.732295 0.1715658,1.081588 0.1134941,0.349284 0.2812565,0.678531 0.4971273,0.975651 0.2158342,0.297045 0.4770678,0.558279 0.7741129,0.774113 0.2971199,0.215871 0.6263667,0.383633 0.975651,0.497127 0.3492929,0.113586 0.7142904,0.171484 1.0815878,0.171566 h 4.3521888 c -0.110393,-0.354655 -0.206588,-0.713576 -0.288354,-1.075903 -0.14105,-0.800338 -0.211944,-1.61147 -0.211874,-2.424142 -7e-5,-0.812672 0.07082,-1.623803 0.211874,-2.424141 0.08177,-0.362327 0.177961,-0.721249 0.288354,-1.075904 z" />
    <path d="m 13.281877,17.926554 a 13.959908,13.959908 0 0 1 1.330151,-1.899625 13.959908,13.959908 0 0 1 0.860412,-0.860413 v 0 a 13.959908,13.959908 0 0 1 0.860413,-0.860413 13.959908,13.959908 0 0 1 1.899109,-1.330151 L 15.185636,9.9296264 A 3.5,3.5 0 0 0 14.460616,9.373588 3.5,3.5 0 0 0 13.61674,9.0237385 3.5,3.5 0 0 0 12.710852,8.904366 3.5,3.5 0 0 0 11.804964,9.0237385 3.5,3.5 0 0 0 10.961088,9.373588 3.5,3.5 0 0 0 10.236584,9.9296264 3.5,3.5 0 0 0 9.5921793,10.815877 a 3.5,3.5 0 0 0 -0.3384806,1.041797 3.5,3.5 0 0 0 0,1.09554 3.5,3.5 0 0 0 0.3384806,1.041797 3.5,3.5 0 0 0 0.6444047,0.885734 z" style="stroke-linecap:round;stroke-linejoin:round" />
    <path d="m 37.330021,32.074011 a 13.959908,13.959908 0 0 1 -1.330151,1.899109 13.959908,13.959908 0 0 1 -0.860413,0.860412 v 0 a 13.959908,13.959908 0 0 1 -0.860413,0.860413 13.959908,13.959908 0 0 1 -1.898592,1.329635 l 3.045292,3.046842 a 3.5,3.5 0 0 0 0.885734,0.643372 3.5,3.5 0 0 0 1.041281,0.33848 3.5,3.5 0 0 0 1.095023,0 3.5,3.5 0 0 0 1.04128,-0.33848 3.5,3.5 0 0 0 0.885734,-0.643372 3.5,3.5 0 0 0 0.280603,-0.31626 3.5,3.5 0 0 0 0.240296,-0.348299 3.5,3.5 0 0 0 0.19637,-0.374137 3.5,3.5 0 0 0 0.150379,-0.395325 3.5,3.5 0 0 0 0.100769,-0.410311 3.5,3.5 0 0 0 0.05116,-0.420129 3.5,3.5 0 0 0 0,-0.422713 3.5,3.5 0 0 0 -0.05116,-0.419613 3.5,3.5 0 0 0 -0.100769,-0.410311 3.5,3.5 0 0 0 -0.150379,-0.395325 3.5,3.5 0 0 0 -0.19637,-0.374654 3.5,3.5 0 0 0 -0.240296,-0.347782 3.5,3.5 0 0 0 -0.280603,-0.31626 z" style="stroke-linecap:round;stroke-linejoin:round" />
    <path d="m 38.815718,21.499979 a 13.959908,13.959908 0 0 1 0.04444,0.159164 13.959908,13.959908 0 0 1 0.17725,0.824756 13.959908,13.959908 0 0 1 0.126607,0.833541 13.959908,13.959908 0 0 1 0.07648,0.839742 13.959908,13.959908 0 0 1 0.02532,0.842842 v 0 a 13.959908,13.959908 0 0 1 -0.211873,2.424142 13.959908,13.959908 0 0 1 -0.288355,1.075903 h 4.351672 a 3.5,3.5 0 0 0 1.081588,-0.171566 3.5,3.5 0 0 0 0.975651,-0.497127 3.5,3.5 0 0 0 0.774113,-0.774113 3.5,3.5 0 0 0 0.497127,-0.975651 3.5,3.5 0 0 0 0.171566,-1.081588 3.5,3.5 0 0 0 -0.02584,-0.421679 3.5,3.5 0 0 0 -0.07596,-0.415996 3.5,3.5 0 0 0 -0.125574,-0.403593 3.5,3.5 0 0 0 -0.173633,-0.385506 3.5,3.5 0 0 0 -0.218591,-0.361735 3.5,3.5 0 0 0 -0.260966,-0.332279 3.5,3.5 0 0 0 -0.29869,-0.299207 3.5,3.5 0 0 0 -0.332796,-0.260449 3.5,3.5 0 0 0 -0.361735,-0.218591 3.5,3.5 0 0 0 -0.38499,-0.173633 3.5,3.5 0 0 0 -0.403593,-0.125574 3.5,3.5 0 0 0 -0.415995,-0.07648 3.5,3.5 0 0 0 -0.42168,-0.02532 z" style="stroke-linecap:round;stroke-linejoin:round" />
    <path d="m 32.384586,12.972335 a 13.959908,13.959908 0 0 1 0.143144,0.08113 13.959908,13.959908 0 0 1 0.708484,0.457853 13.959908,13.959908 0 0 1 0.679028,0.499711 13.959908,13.959908 0 0 1 0.648023,0.540019 13.959908,13.959908 0 0 1 0.613916,0.577742 v 0 a 13.959908,13.959908 0 0 1 0.577742,0.613916 13.959908,13.959908 0 0 1 0.540019,0.648023 13.959908,13.959908 0 0 1 0.499711,0.679028 13.959908,13.959908 0 0 1 0.457853,0.708484 13.959908,13.959908 0 0 1 0.08113,0.144177 l 3.041158,-3.041675 a 3.5,3.5 0 0 0 0.280603,-0.316259 3.5,3.5 0 0 0 0.240296,-0.347783 3.5,3.5 0 0 0 0.19637,-0.374654 3.5,3.5 0 0 0 0.150379,-0.395325 3.5,3.5 0 0 0 0.100769,-0.410311 3.5,3.5 0 0 0 0.05116,-0.419612 3.5,3.5 0 0 0 0,-0.422713 3.5,3.5 0 0 0 -0.05116,-0.42013 3.5,3.5 0 0 0 -0.100769,-0.410311 3.5,3.5 0 0 0 -0.150379,-0.395324 3.5,3.5 0 0 0 -0.19637,-0.374138 A 3.5,3.5 0 0 0 40.655399,10.245886 3.5,3.5 0 0 0 40.374796,9.9296264 3.5,3.5 0 0 0 39.650293,9.373588 3.5,3.5 0 0 0 38.806417,9.0237385 3.5,3.5 0 0 0 37.900529,8.904366 3.5,3.5 0 0 0 36.994641,9.0237385 3.5,3.5 0 0 0 36.150765,9.373588 3.5,3.5 0 0 0 35.425744,9.9296264 Z" style="stroke-linecap:round;stroke-linejoin:round" />
    <circle style="stroke-width:7;stroke-linecap:round;stroke-linejoin:round;stroke-dasharray:none" id="path1-9" cx="25.305944" cy="25" r="10.515897"/>
  </g>
</svg>
