<svg aria-hidden="true" xmlns="http://www.w3.org/2000/svg" viewBox="0 0 39.319016 39.339096">
  <g transform="translate(-55.96962,-5.914348)">
    <path style="stroke-linecap:round;stroke-linejoin:round;paint-order:stroke markers fill" d="m 75.706175,5.9145455 c -0.46813,-0.00211 -0.936357,0.012689 -1.403532,0.044442 -0.934573,0.063571 -1.863148,0.1947352 -2.779159,0.3906739 -0.91589,0.1960373 -1.816773,0.4569633 -2.695442,0.7813476 -0.878744,0.324236 -1.732777,0.7100078 -2.556433,1.1560018 -0.823583,0.4459808 -1.613495,0.9513444 -2.365231,1.5099854 -0.751784,0.5587278 -1.462386,1.1698288 -2.127002,1.8298618 -0.664716,0.659966 -1.281858,1.367265 -1.845882,2.115117 -0.563861,0.747916 -1.073806,1.535378 -1.525488,2.355928 -0.451665,0.820669 -0.845378,1.672084 -1.175639,2.548682 h 0.0021 c -0.330339,0.876352 -0.598711,1.774801 -0.800985,2.689241 -0.202397,0.914588 -0.339623,1.843528 -0.409794,2.777609 -0.06995,0.934098 -0.07147,1.872003 -0.0078,2.806547 0.06361,0.934382 0.19268,1.863336 0.388607,2.779158 0.195766,0.915422 0.457365,1.817172 0.781347,2.695443 0.324276,0.878549 0.710017,1.732964 1.156002,2.556433 0.446127,0.823809 0.951138,1.613314 1.509985,2.36523 0.55873,0.751786 1.169829,1.462389 1.829863,2.127002 a 3.50035,3.50035 0 0 0 0,0.0021 c 0.659997,0.664523 1.367272,1.279977 2.115116,1.843816 0.747917,0.563861 1.534862,1.073805 2.355412,1.525488 0.820454,0.451817 1.672795,0.84518 2.549198,1.175639 0.876539,0.330379 1.774606,0.596657 2.689242,0.798917 0.914426,0.202167 1.843719,0.338251 2.777608,0.408244 0.934072,0.07011 1.869939,0.07492 2.80448,0.01137 a 3.50035,3.50035 0 0 0 0.0021,0 c 0.934573,-0.06357 1.863148,-0.194217 2.779159,-0.390157 0.91589,-0.196037 1.816771,-0.456963 2.695443,-0.781348 0.878744,-0.324234 1.732776,-0.710525 2.556433,-1.156518 0.823582,-0.445982 1.613495,-0.950827 2.36523,-1.509469 0.751783,-0.558728 1.462388,-1.170347 2.127002,-1.830379 a 3.50035,3.50035 0 0 0 0.0021,0 c 0.664556,-0.66018 1.279986,-1.367071 1.843815,-2.115117 0.563825,-0.747733 1.073796,-1.535059 1.525488,-2.355411 0.451858,-0.820638 0.843123,-1.672082 1.173572,-2.548682 0.330339,-0.876351 0.598711,-1.775317 0.800985,-2.689758 a 3.50035,3.50035 0 0 0 0,-5.17e-4 3.50035,3.50035 0 0 0 0,-5.17e-4 3.50035,3.50035 0 0 0 0,-5.17e-4 3.50035,3.50035 0 0 0 0,-5.16e-4 3.50035,3.50035 0 0 0 0,-5.17e-4 3.50035,3.50035 0 0 0 0,-5.17e-4 3.50035,3.50035 0 0 0 0,-5.17e-4 c 0.0042,-0.019 0.0094,-0.03783 0.01344,-0.05684 l 0.0021,-0.01188 c 0.0042,-0.01897 0.0078,-0.03735 0.01189,-0.05633 a 3.50035,3.50035 0 0 0 0.0036,-0.01602 c 0.004,-0.01898 0.008,-0.03734 0.01188,-0.05633 l 0.0016,-0.01188 c 0.004,-0.01898 0.008,-0.03734 0.01188,-0.05633 a 3.50035,3.50035 0 0 0 0.0041,-0.01395 c 0.0022,-0.01077 0.0035,-0.0223 0.0057,-0.03307 l 0.0041,-0.0217 c 10e-4,-0.0051 0.0026,-0.01035 0.0036,-0.0155 0.0023,-0.01093 0.0056,-0.02214 0.0078,-0.03307 a 3.50035,3.50035 0 0 0 0.0078,-0.04289 c 0.0037,-0.01901 0.0083,-0.03783 0.01189,-0.05684 l 0.0021,-0.01189 c 0.0032,-0.01637 0.0066,-0.0322 0.0098,-0.04858 l 0.0021,-0.0078 c 0.0039,-0.02042 0.0059,-0.04002 0.0098,-0.06046 a 3.50035,3.50035 0 0 0 0.0036,-0.01189 c 0.0038,-0.02027 0.0061,-0.04018 0.0098,-0.06046 l 0.0021,-0.0078 c 0.0038,-0.02045 0.0082,-0.04 0.01189,-0.06046 a 3.50035,3.50035 0 0 0 0.0021,-0.01395 c 0.0032,-0.01837 0.0066,-0.0364 0.0098,-0.05478 l 0.0021,-0.01344 c 0.0026,-0.01479 0.0052,-0.03016 0.0078,-0.04496 l 0.0016,-0.01188 c 0.0034,-0.01917 0.0064,-0.03715 0.0098,-0.05633 a 3.50035,3.50035 0 0 0 0.0021,-0.01395 c 0.0039,-0.02295 0.0081,-0.04524 0.01189,-0.06821 0.0035,-0.02062 0.0064,-0.0419 0.0098,-0.06253 a 3.50035,3.50035 0 0 0 0.0021,-0.01188 c 0.0031,-0.01919 0.0067,-0.03713 0.0098,-0.05633 l 0.0021,-0.01188 c 0.0031,-0.01919 0.0067,-0.03764 0.0098,-0.05684 a 3.50035,3.50035 0 0 0 0.0021,-0.01344 c 0.0034,-0.02233 0.0059,-0.04431 0.0093,-0.06666 v -0.0021 c 0.0034,-0.02254 0.0065,-0.04565 0.0098,-0.06821 a 3.50035,3.50035 0 0 0 0.0041,-0.01757 c 0.0033,-0.02318 0.0066,-0.04709 0.0098,-0.07028 0.0013,-0.009 0.0023,-0.01841 0.0036,-0.02739 a 3.50035,3.50035 0 0 0 0.0062,-0.04082 c 0.0031,-0.0232 0.0048,-0.04707 0.0078,-0.07028 v 0.01344 c 0.0031,-0.0232 0.0048,-0.04707 0.0078,-0.07028 v 0.01395 c 0.0031,-0.0232 0.0048,-0.04708 0.0078,-0.07028 a 3.50035,3.50035 0 0 0 0.0021,-0.01757 c 0.0024,-0.01933 0.0054,-0.03958 0.0078,-0.05891 l 0.0021,-0.01188 c 0.0019,-0.01523 0.0038,-0.02921 0.0057,-0.04444 l 0.0021,-0.01189 c 0.0024,-0.01933 0.0038,-0.03906 0.0062,-0.05839 a 3.50035,3.50035 0 0 0 0.0021,-0.01189 c 0.0028,-0.02323 0.0051,-0.04497 0.0078,-0.06821 a 3.50035,3.50035 0 0 0 0.0021,-0.01757 c 0.0021,-0.01934 0.0036,-0.03956 0.0057,-0.05891 l 0.0021,-0.01188 c 0.0018,-0.01662 0.0039,-0.03196 0.0057,-0.04858 v -0.0078 c 0.0023,-0.02085 0.004,-0.04167 0.0062,-0.06253 a 3.50035,3.50035 0 0 0 0.0021,-0.0078 c 0.0024,-0.02326 0.0055,-0.04702 0.0078,-0.07028 l -0.0021,0.0057 c 0.0017,-0.01728 0.004,-0.03335 0.0057,-0.05064 v -0.0021 c 0.0023,-0.0226 0.0039,-0.04354 0.0062,-0.06615 a 3.50035,3.50035 0 0 0 0.0036,-0.02584 c 0.0022,-0.02327 0.0041,-0.04493 0.0062,-0.06821 a 3.50035,3.50035 0 0 0 0,-5.17e-4 3.50035,3.50035 0 0 0 0,-5.17e-4 3.50035,3.50035 0 0 0 0,-5.16e-4 3.50035,3.50035 0 0 0 0,-5.17e-4 3.50035,3.50035 0 0 0 0,-5.17e-4 3.50035,3.50035 0 0 0 0,-5.17e-4 3.50035,3.50035 0 0 0 0,-5.16e-4 3.50035,3.50035 0 0 0 0,-5.17e-4 3.50035,3.50035 0 0 0 0,-5.17e-4 3.50035,3.50035 0 0 0 0,-5.17e-4 3.50035,3.50035 0 0 0 0,-5.16e-4 3.50035,3.50035 0 0 0 0,-5.17e-4 3.50035,3.50035 0 0 0 0,-5.17e-4 3.50035,3.50035 0 0 0 0,-5.17e-4 3.50035,3.50035 0 0 0 0,-5.16e-4 3.50035,3.50035 0 0 0 0,-5.17e-4 3.50035,3.50035 0 0 0 0,-5.17e-4 3.50035,3.50035 0 0 0 0,-5.17e-4 3.50035,3.50035 0 0 0 0,-5.17e-4 3.50035,3.50035 0 0 0 0,-5.16e-4 3.50035,3.50035 0 0 0 0,-5.17e-4 3.50035,3.50035 0 0 0 0,-5.17e-4 3.50035,3.50035 0 0 0 0,-5.17e-4 3.50035,3.50035 0 0 0 0,-5.16e-4 3.50035,3.50035 0 0 0 0,-5.17e-4 3.50035,3.50035 0 0 0 0,-5.17e-4 c 0.0017,-0.01999 0.004,-0.03892 0.0057,-0.05891 v -0.0098 c 0.0013,-0.01565 0.0028,-0.03086 0.0041,-0.04651 l 0.0016,-0.01395 c 0.0016,-0.01861 0.0026,-0.03616 0.0041,-0.05478 a 3.50035,3.50035 0 0 0 0.0021,-0.01912 c 0.0014,-0.01796 0.0023,-0.03475 0.0036,-0.05271 l 0.0021,-0.01602 v -0.0036 l 0.0021,-0.01964 v -0.01964 l 0.0021,-0.01964 a 3.50035,3.50035 0 0 0 0.0021,-0.03876 l 0.0021,-0.01395 a 3.50035,3.50035 0 0 0 0,-5.17e-4 3.50035,3.50035 0 0 0 0,-5.17e-4 3.50035,3.50035 0 0 0 0,-5.17e-4 3.50035,3.50035 0 0 0 0,-5.16e-4 3.50035,3.50035 0 0 0 0,-5.17e-4 3.50035,3.50035 0 0 0 0,-5.17e-4 3.50035,3.50035 0 0 0 0,-5.17e-4 3.50035,3.50035 0 0 0 0,-5.16e-4 3.50035,3.50035 0 0 0 0,-5.17e-4 3.50035,3.50035 0 0 0 0,-5.17e-4 3.50035,3.50035 0 0 0 0,-5.17e-4 3.50035,3.50035 0 0 0 0,-5.17e-4 3.50035,3.50035 0 0 0 0,-5.16e-4 3.50035,3.50035 0 0 0 0,-5.17e-4 3.50035,3.50035 0 0 0 0,-5.17e-4 3.50035,3.50035 0 0 0 0,-5.17e-4 3.50035,3.50035 0 0 0 0,-5.16e-4 3.50035,3.50035 0 0 0 0,-5.17e-4 3.50035,3.50035 0 0 0 0,-5.17e-4 3.50035,3.50035 0 0 0 0,-5.17e-4 3.50035,3.50035 0 0 0 0,-5.16e-4 3.50035,3.50035 0 0 0 0,-5.17e-4 l 0.0021,-0.02532 a 3.50035,3.50035 0 0 0 0,-5.16e-4 3.50035,3.50035 0 0 0 0,-5.17e-4 3.50035,3.50035 0 0 0 0,-5.17e-4 3.50035,3.50035 0 0 0 0,-5.17e-4 3.50035,3.50035 0 0 0 0,-5.16e-4 3.50035,3.50035 0 0 0 0,-5.17e-4 3.50035,3.50035 0 0 0 0,-5.17e-4 3.50035,3.50035 0 0 0 0,-5.17e-4 3.50035,3.50035 0 0 0 0,-5.17e-4 3.50035,3.50035 0 0 0 0,-5.16e-4 3.50035,3.50035 0 0 0 0,-5.17e-4 3.50035,3.50035 0 0 0 0,-5.17e-4 l 0.0016,-0.0155 a 3.50035,3.50035 0 0 0 0,-5.16e-4 3.50035,3.50035 0 0 0 0,-5.17e-4 3.50035,3.50035 0 0 0 0,-5.17e-4 3.50035,3.50035 0 0 0 0,-5.17e-4 3.50035,3.50035 0 0 0 0,-5.17e-4 3.50035,3.50035 0 0 0 0,-5.16e-4 3.50035,3.50035 0 0 0 0,-5.17e-4 3.50035,3.50035 0 0 0 0,-5.17e-4 3.50035,3.50035 0 0 0 0,-5.17e-4 3.50035,3.50035 0 0 0 0,-5.16e-4 3.50035,3.50035 0 0 0 0,-5.17e-4 3.50035,3.50035 0 0 0 0,-5.17e-4 3.50035,3.50035 0 0 0 0,-5.17e-4 3.50035,3.50035 0 0 0 0,-5.16e-4 3.50035,3.50035 0 0 0 0,-5.17e-4 3.50035,3.50035 0 0 0 0,-5.17e-4 3.50035,3.50035 0 0 0 0,-5.17e-4 3.50035,3.50035 0 0 0 0,-5.16e-4 3.50035,3.50035 0 0 0 0,-5.17e-4 l 0.0021,-0.02739 a 3.50035,3.50035 0 0 0 0,-5.17e-4 3.50035,3.50035 0 0 0 0,-5.16e-4 3.50035,3.50035 0 0 0 0,-5.17e-4 3.50035,3.50035 0 0 0 0,-5.17e-4 3.50035,3.50035 0 0 0 0,-5.17e-4 3.50035,3.50035 0 0 0 0,-5.16e-4 3.50035,3.50035 0 0 0 0,-5.17e-4 3.50035,3.50035 0 0 0 0,-5.17e-4 3.50035,3.50035 0 0 0 0,-5.17e-4 3.50035,3.50035 0 0 0 0,-5.16e-4 3.50035,3.50035 0 0 0 0,-5.17e-4 3.50035,3.50035 0 0 0 0.0041,-0.05116 3.50035,3.50035 0 0 0 0.0021,-0.03876 v 0.02119 a 3.50035,3.50035 0 0 0 0.0021,-0.04082 3.50035,3.50035 0 0 0 0.0021,-0.03927 l 0.0015,-0.01912 v -0.01757 l 0.0021,-0.01964 v -0.01964 l 0.0021,-0.01964 a 3.50035,3.50035 0 0 0 0.0021,-0.0646 v -0.01137 a 3.50035,3.50035 0 0 0 -3.929476,-3.589962 h -0.0021 a 3.50035,3.50035 0 0 0 -2.396753,1.415934 c -0.166431,0.22891 -0.349245,0.446336 -0.538985,0.656291 -0.315992,0.320239 -0.656298,0.618452 -1.021644,0.881083 -0.377732,0.271558 -0.777675,0.508712 -1.196826,0.710551 -0.419091,0.201838 -0.854991,0.366472 -1.302763,0.492477 -0.447901,0.125939 -0.906458,0.211627 -1.369425,0.257865 a 3.50035,3.50035 0 0 0 0,0.0021 c -0.462829,0.04634 -0.928836,0.05022 -1.39268,0.0155 -0.463944,-0.03484 -0.923748,-0.109912 -1.374593,-0.224792 -0.450781,-0.114789 -0.890647,-0.267573 -1.314648,-0.458887 -0.426277,-0.191319 -0.832581,-0.419497 -1.21698,-0.681612 -0.384356,-0.262102 -0.744969,-0.557771 -1.077971,-0.882634 -0.333008,-0.324847 -0.636931,-0.679043 -0.908471,-1.056783 -0.271558,-0.377732 -0.511296,-0.778192 -0.713135,-1.197343 -0.201847,-0.419196 -0.36598,-0.85488 -0.49196,-1.302763 -0.125928,-0.447794 -0.211599,-0.903984 -0.257865,-1.366841 a 3.50035,3.50035 0 0 0 0,-5.17e-4 3.50035,3.50035 0 0 0 0,-5.17e-4 3.50035,3.50035 0 0 0 0,-5.17e-4 3.50035,3.50035 0 0 0 0,-5.16e-4 c -0.04635,-0.462937 -0.05232,-0.928729 -0.01757,-1.39268 0.03485,-0.463834 0.109938,-0.922304 0.224792,-1.373043 a 3.50035,3.50035 0 0 0 0,-5.17e-4 3.50035,3.50035 0 0 0 0,-5.17e-4 3.50035,3.50035 0 0 0 0,-5.16e-4 3.50035,3.50035 0 0 0 0,-5.17e-4 c 0.114778,-0.450893 0.267547,-0.890542 0.458887,-1.314648 0.191385,-0.423967 0.419521,-0.830618 0.681612,-1.214913 0.262095,-0.38447 0.557747,-0.744866 0.882634,-1.077971 0.312251,-0.320097 0.654693,-0.609386 1.015958,-0.872815 0.19844,-0.128683 0.400176,-0.25269 0.609265,-0.363285 a 3.50035,3.50035 0 0 0 -1.27295,-6.5741648 c -0.06175,-0.00646 -0.123708,-0.011694 -0.185518,-0.01757 a 3.50035,3.50035 0 0 0 -0.07028,-0.00568 c -0.466941,-0.03505 -0.934886,-0.054225 -1.403015,-0.056332 z M 88.290936,26.265758 a 3.50035,3.50035 0 0 0 0,0.0057 l -0.0021,0.0078 z"/>
  </g>
</svg>
