<?xml version="1.0" encoding="UTF-8"?>
<svg xmlns="http://www.w3.org/2000/svg" xmlns:xlink="http://www.w3.org/1999/xlink" width="226.89" height="177.561" viewBox="0 0 226.89 177.561">
<path fill="none" stroke-width="0.3985" stroke-linecap="butt" stroke-linejoin="miter" stroke="rgb(0%, 0%, 0%)" stroke-opacity="1" stroke-miterlimit="10" d="M -73.777156 -40.549812 L 73.777531 -72.834969 L 73.777531 40.55175 L -73.777156 72.836906 Z M -73.777156 -40.549812 " transform="matrix(1, 0, 0, -1, 138.742, 87.208)"/>
<path fill-rule="nonzero" fill="rgb(0%, 67.83905%, 93.728638%)" fill-opacity="0.1" stroke-width="0.3985" stroke-linecap="butt" stroke-linejoin="miter" stroke="rgb(0%, 0%, 0%)" stroke-opacity="1" stroke-miterlimit="10" d="M -124.370906 -59.838875 L -50.597469 -75.983406 L -50.597469 -19.288094 L -124.370906 -3.143562 Z M -124.370906 -59.838875 " transform="matrix(1, 0, 0, -1, 138.742, 87.208)"/>
<path fill="none" stroke-width="0.3985" stroke-linecap="butt" stroke-linejoin="miter" stroke="rgb(0%, 0%, 0%)" stroke-opacity="1" stroke-miterlimit="10" d="M -50.597469 -19.288094 L 73.777531 40.55175 " transform="matrix(1, 0, 0, -1, 138.742, 87.208)"/>
<path fill="none" stroke-width="0.3985" stroke-linecap="butt" stroke-linejoin="miter" stroke="rgb(0%, 0%, 0%)" stroke-opacity="1" stroke-miterlimit="10" d="M -124.370906 -3.143562 L -73.777156 72.836906 " transform="matrix(1, 0, 0, -1, 138.742, 87.208)"/>
<path fill="none" stroke-width="0.3985" stroke-linecap="butt" stroke-linejoin="miter" stroke="rgb(0%, 0%, 0%)" stroke-opacity="1" stroke-miterlimit="10" d="M -124.370906 -59.838875 L -73.777156 -40.549812 " transform="matrix(1, 0, 0, -1, 138.742, 87.208)"/>
<path fill="none" stroke-width="0.3985" stroke-linecap="butt" stroke-linejoin="miter" stroke="rgb(0%, 0%, 0%)" stroke-opacity="1" stroke-miterlimit="10" d="M -50.597469 -75.983406 L 73.777531 -72.834969 " transform="matrix(1, 0, 0, -1, 138.742, 87.208)"/>
</svg>
